<svg xmlns="http://www.w3.org/2000/svg" width="47" height="47" viewBox="0 0 47 47" fill="none"><path d="M15.4426 27.0865L20.1439 21" stroke="#E8E7E7" stroke-width="1.57959" stroke-linecap="round"></path><path d="M20.7133 27.1813L22.8464 24.1239" stroke="#E8E7E7" stroke-width="1.57959" stroke-linecap="round"></path><path d="M19.3508 14.8308L8.82687 26" stroke="#E8E7E7" stroke-width="2.5" stroke-linecap="round"></path><path d="M19.5307 14.7407L29.7721 25.8547" stroke="#E8E7E7" stroke-width="2.5" stroke-linecap="round"></path><path d="M8.64374 26.5C8.64374 26.5 2.25614 34.6503 8.64374 36.0977C15.0313 37.5451 23.5952 32.7275 23.5952 32.7275" stroke="#E8E7E7" stroke-width="2.5" stroke-linecap="round"></path><path d="M39.6176 37.6105C39.6176 37.6105 44.9342 30.7827 38.5466 29.3352C32.159 27.8878 23.5951 32.7055 23.5951 32.7055" stroke="#E8E7E7" stroke-width="2.5" stroke-linecap="round"></path><path d="M22.6659 44.9145C32.117 45.8607 41.9049 38.8576 44.4039 28.5139C47.8328 14.3209 36.8427 1.41643 22.6659 2.02039C9.12897 2.59709 0.612122 13.6499 2.23278 26.51" stroke="#E8E7E7" stroke-width="2.5" stroke-linecap="round"></path><path d="M44.5358 27.5C43.5358 19.5 34.7041 9.50002 23.0358 9.50002C11.3675 9.50002 5.03578 16.5 2.03577 24.9999" stroke="#E8E7E7" stroke-width="2" stroke-linecap="round"></path></svg>